# File created by Blade
# Date/Time:  Thu Jan 22 16:31:11 2015
# Frame Rate: 120.000 fps
#------------------------------------------------------
:FULLY-SPECIFIED
:DEGREES
997
root 7.105962 34.590751 0.689896 -8.214819 12.960190 11.941793
RightUpLeg -6.881029 -14.343867 -29.450759
RightLeg 43.474002 -0.000000 -0.000000
RightFoot -26.853953 -10.886725 27.940560
RightToeBase 12.407247 -0.000000 -0.000000
LeftUpLeg -5.948975 -6.578857 10.076039
LeftLeg 22.516406 -0.000000 -0.000000
LeftFoot -14.622590 16.814304 -21.675699
LeftToeBase -5.424929 -0.000000 0.000000
Spine 34.353410 -12.751879 -5.967367
RightShoulder -1.660868 -20.108186 -17.703462
RightArm 20.461766 -15.479017 69.454253
RightForeArm 16.200851 -0.000000 34.832340
RightHand 7.281132 -0.000000 -19.307045
RightHandThumb1 -24.326973 -0.000000 -32.862282
LeftShoulder -26.188297 35.043953 -3.001189
LeftArm 36.533266 3.833612 -77.815166
LeftForeArm 28.640830 -0.000000 51.621626
LeftHand -21.185973 0.000000 -3.597464
LeftHandThumb1 -26.253704 0.000000 33.147579
Head -28.602550 3.987187 -5.959729
998
root 6.966290 34.715391 0.665959 -8.276472 12.974882 12.124510
RightUpLeg -6.553935 -14.127180 -29.309371
RightLeg 42.800040 -0.000000 -0.000000
RightFoot -26.685210 -11.286889 27.788812
RightToeBase 12.306475 -0.000000 -0.000000
LeftUpLeg -6.140771 -6.410468 9.122793
LeftLeg 23.506111 -0.000000 -0.000000
LeftFoot -15.201341 17.507108 -21.442913
LeftToeBase -5.518301 -0.000000 0.000000
Spine 34.255238 -12.672734 -5.682278
RightShoulder -1.445943 -19.996047 -18.036199
RightArm 20.577032 -14.972750 69.155405
RightForeArm 16.476662 -0.000000 35.036186
RightHand 7.233204 -0.000000 -19.627411
RightHandThumb1 -24.326973 -0.000000 -32.862282
LeftShoulder -25.908751 34.852913 -2.800641
LeftArm 36.860138 3.929778 -77.509169
LeftForeArm 29.188795 -0.000000 50.763262
LeftHand -21.155300 -0.000000 -4.423924
LeftHandThumb1 -26.253704 0.000000 33.147579
Head -28.628694 3.985586 -6.180757
999
root 6.831196 34.841534 0.645347 -8.322222 12.928209 12.279521
RightUpLeg -6.249260 -13.895830 -29.135923
RightLeg 42.080561 -0.000000 -0.000000
RightFoot -26.501548 -11.696118 27.662949
RightToeBase 12.125944 -0.000000 -0.000000
LeftUpLeg -6.318480 -5.944640 8.185329
LeftLeg 24.456592 -0.000000 -0.000000
LeftFoot -15.948154 18.467629 -21.524952
LeftToeBase -5.407546 -0.000000 0.000000
Spine 34.117594 -12.568402 -5.394599
RightShoulder -1.185711 -19.753928 -18.359656
RightArm 20.544637 -14.540079 68.759883
RightForeArm 16.734185 -0.000000 35.294229
RightHand 7.104938 -0.000000 -19.800398
RightHandThumb1 -24.326973 -0.000000 -32.862282
LeftShoulder -25.723455 34.657002 -2.640900
LeftArm 37.201512 4.037350 -77.169145
LeftForeArm 29.805404 -0.000000 49.862082
LeftHand -20.848086 -0.000000 -4.586308
LeftHandThumb1 -26.253704 0.000000 33.147579
Head -28.612968 4.054284 -6.366670
1000
root 6.697567 34.970983 0.628814 -8.397071 12.891976 12.363848
RightUpLeg -5.874861 -13.690749 -28.909721
RightLeg 41.292665 -0.000000 -0.000000
RightFoot -26.260502 -12.091559 27.510665
RightToeBase 12.121391 -0.000000 -0.000000
LeftUpLeg -6.481780 -5.270351 7.329865
LeftLeg 25.405305 -0.000000 -0.000000
LeftFoot -16.504691 19.599409 -21.299518
LeftToeBase -5.371987 -0.000000 0.000000
Spine 33.995447 -12.469754 -5.049415
RightShoulder -1.000723 -19.597301 -18.649642
RightArm 20.660869 -14.185806 68.171935
RightForeArm 17.038931 -0.000000 35.503968
RightHand 6.953588 0.000000 -19.794072
RightHandThumb1 -24.326973 -0.000000 -32.862282
LeftShoulder -25.522722 34.511534 -2.493804
LeftArm 37.584018 4.086148 -76.818085
LeftForeArm 30.622359 -0.000000 48.982008
LeftHand -20.645199 0.000000 -4.284906
LeftHandThumb1 -26.253704 0.000000 33.147579
Head -28.585099 4.089361 -6.550623
1001
root 6.563817 35.100550 0.615728 -8.504146 12.783792 12.413926
RightUpLeg -5.475807 -13.432419 -28.641895
RightLeg 40.436748 -0.000000 -0.000000
RightFoot -26.010277 -12.451186 27.336478
RightToeBase 12.021950 -0.000000 -0.000000
LeftUpLeg -6.613013 -4.335455 6.539464
LeftLeg 26.399181 -0.000000 -0.000000
LeftFoot -17.244121 20.447486 -21.440835
LeftToeBase -4.957402 -0.000000 0.000000
Spine 33.889895 -12.312260 -4.700599
RightShoulder -0.811819 -19.442513 -18.954055
RightArm 20.761111 -13.731049 67.591422
RightForeArm 17.158394 -0.000000 35.744577
RightHand 6.773599 -0.000000 -19.640890
RightHandThumb1 -24.326973 -0.000000 -32.862282
LeftShoulder -25.291994 34.273758 -2.252818
LeftArm 37.824060 4.050950 -76.530016
LeftForeArm 31.484432 -0.000000 48.165647
LeftHand -20.387923 -0.000000 -4.093271
LeftHandThumb1 -26.253704 0.000000 33.147579
Head -28.513445 4.009776 -6.749511
1002
root 6.430968 35.231434 0.608206 -8.622794 12.684245 12.419392
RightUpLeg -5.034573 -13.210283 -28.346133
RightLeg 39.552211 -0.000000 -0.000000
RightFoot -25.716285 -12.761832 27.148972
RightToeBase 12.017007 -0.000000 -0.000000
LeftUpLeg -6.681898 -3.553870 5.814196
LeftLeg 27.274331 -0.000000 -0.000000
LeftFoot -17.830413 21.268138 -21.362964
LeftToeBase -4.690012 -0.000000 0.000000
Spine 33.778036 -12.188961 -4.359762
RightShoulder -0.632313 -19.315116 -19.205256
RightArm 20.903802 -13.274531 66.906093
RightForeArm 17.110907 -0.000000 35.920386
RightHand 6.786677 -0.000000 -19.389004
RightHandThumb1 -24.326973 -0.000000 -32.862282
LeftShoulder -25.136018 34.046239 -2.050542
LeftArm 38.077642 3.958801 -76.219816
LeftForeArm 32.344951 -0.000000 47.405960
LeftHand -20.330754 -0.000000 -4.090113
LeftHandThumb1 -26.253704 0.000000 33.147579
Head -28.422154 4.161563 -6.943868
1003
root 6.307062 35.361462 0.589272 -8.656804 12.527664 12.477656
RightUpLeg -4.711219 -12.994562 -28.095864
RightLeg 38.657028 -0.000000 -0.000000
RightFoot -25.388203 -13.042684 26.992830
RightToeBase 11.934060 -0.000000 -0.000000
LeftUpLeg -6.833891 -2.943906 5.051520
LeftLeg 28.209164 -0.000000 -0.000000
LeftFoot -18.104623 21.930270 -20.915230
LeftToeBase -5.066236 -0.000000 0.000000
Spine 33.583969 -12.030776 -4.098263
RightShoulder -0.414282 -19.151225 -19.496369
RightArm 21.063290 -12.745962 66.269186
RightForeArm 17.079748 0.000000 35.947567
RightHand 6.849179 -0.000000 -19.155933
RightHandThumb1 -24.326973 -0.000000 -32.862282
LeftShoulder -24.968604 33.822736 -1.803445
LeftArm 38.243365 3.746644 -75.957120
LeftForeArm 33.229129 -0.000000 46.770519
LeftHand -20.117988 -0.000000 -4.265282
LeftHandThumb1 -26.253704 0.000000 33.147579
Head -28.267763 4.189887 -7.036429
1004
root 6.178177 35.491547 0.571565 -8.718072 12.418296 12.480410
RightUpLeg -4.326830 -12.729548 -27.787451
RightLeg 37.737944 -0.000000 -0.000000
RightFoot -25.051797 -13.359018 26.917181
RightToeBase 11.828482 -0.000000 -0.000000
LeftUpLeg -6.986210 -2.703134 4.386216
LeftLeg 29.231481 -0.000000 -0.000000
LeftFoot -18.416092 21.918866 -20.743530
LeftToeBase -4.929949 -0.000000 0.000000
Spine 33.430848 -11.882310 -3.857109
RightShoulder -0.272077 -18.982625 -19.660149
RightArm 21.243159 -12.185249 65.512688
RightForeArm 16.966674 -0.000000 35.981756
RightHand 6.801698 -0.000000 -18.930643
RightHandThumb1 -24.326973 -0.000000 -32.862282
LeftShoulder -24.807228 33.607417 -1.491031
LeftArm 38.405525 3.464073 -75.759040
LeftForeArm 34.251487 0.000000 46.197728
LeftHand -19.888595 -0.000000 -4.343200
LeftHandThumb1 -26.253704 0.000000 33.147579
Head -28.147805 4.362351 -7.050011
1005
root 6.058781 35.617975 0.549914 -8.721399 12.250519 12.532967
RightUpLeg -4.015753 -12.485875 -27.533702
RightLeg 36.800453 -0.000000 -0.000000
RightFoot -24.724092 -13.618199 26.863007
RightToeBase 11.854655 -0.000000 -0.000000
LeftUpLeg -7.160862 -2.862103 3.658971
LeftLeg 30.246860 -0.000000 -0.000000
LeftFoot -18.586494 21.765814 -20.484234
LeftToeBase -4.930710 -0.000000 0.000000
Spine 33.215121 -11.696980 -3.705161
RightShoulder -0.152425 -18.862775 -19.808471
RightArm 21.540030 -11.711509 64.639513
RightForeArm 16.864112 -0.000000 35.938007
RightHand 6.727407 -0.000000 -18.846951
RightHandThumb1 -24.326973 -0.000000 -32.862282
LeftShoulder -24.694265 33.433063 -1.156921
LeftArm 38.545900 3.157654 -75.552502
LeftForeArm 35.091062 -0.000000 45.704172
LeftHand -19.821298 -0.000000 -4.037031
LeftHandThumb1 -26.253704 0.000000 33.147579
Head -27.965809 4.481130 -6.979897
1006
root 5.945572 35.741229 0.534437 -8.738183 12.087908 12.573804
RightUpLeg -3.677790 -12.240350 -27.283337
RightLeg 35.857674 -0.000000 -0.000000
RightFoot -24.355044 -13.925531 26.734996
RightToeBase 11.813694 -0.000000 -0.000000
LeftUpLeg -7.311676 -3.420010 2.923976
LeftLeg 31.269109 -0.000000 -0.000000
LeftFoot -18.566722 21.472716 -19.984524
LeftToeBase -4.890086 -0.000000 0.000000
Spine 33.002074 -11.538095 -3.581486
RightShoulder -0.027230 -18.609219 -19.977456
RightArm 21.684272 -11.210354 63.838476
RightForeArm 16.818924 -0.000000 35.891307
RightHand 6.568253 -0.000000 -18.468644
RightHandThumb1 -24.326973 -0.000000 -32.862282
LeftShoulder -24.637775 33.264694 -0.851135
LeftArm 38.650310 2.765583 -75.338430
LeftForeArm 35.940142 0.000000 45.340690
LeftHand -19.644292 -0.000000 -4.803726
LeftHandThumb1 -26.253704 0.000000 33.147579
Head -27.788653 4.663820 -6.907269
1007
root 5.838490 35.860884 0.516036 -8.737807 11.914612 12.601060
RightUpLeg -3.360593 -11.985212 -27.024316
RightLeg 34.909524 -0.000000 -0.000000
RightFoot -23.972039 -14.216317 26.598455
RightToeBase 11.674449 -0.000000 -0.000000
LeftUpLeg -7.491764 -4.295881 2.186345
LeftLeg 32.369986 -0.000000 -0.000000
LeftFoot -18.814291 20.795888 -19.888934
LeftToeBase -4.487963 -0.000000 0.000000
Spine 32.769083 -11.366118 -3.462717
RightShoulder 0.075602 -18.373832 -20.114398
RightArm 21.811710 -10.656775 62.981314
RightForeArm 16.545006 -0.000000 35.851422
RightHand 6.370856 0.000000 -18.340569
RightHandThumb1 -24.326973 -0.000000 -32.862282
LeftShoulder -24.571074 33.131731 -0.524079
LeftArm 38.751515 2.320112 -75.137144
LeftForeArm 36.711345 -0.000000 45.032531
LeftHand -19.579802 0.000000 -4.654146
LeftHandThumb1 -26.253704 0.000000 33.147579
Head -27.611750 4.885838 -6.802981
